<?xml version="1.0" encoding="iso-8859-1"?>
<!-- Generator: Adobe Illustrator 19.0.0, SVG Export Plug-In . SVG Version: 6.00 Build 0)  -->
<svg version="1.1" id="Capa_1" xmlns="http://www.w3.org/2000/svg" xmlns:xlink="http://www.w3.org/1999/xlink" x="0px" y="0px" viewBox="0 0 512 512" style="enable-background:new 0 0 512 512;" xml:space="preserve">
	<path
		style="fill:#FFA6B7;"
		d="M476.36,371.427c0,7.39-0.2,14.9-0.59,22.32l-0.76,14.2H39.62l-0.76-14.2
	c-0.39-7.43-0.59-14.94-0.59-22.32c0-58.48,12.08-114.32,34.27-161.96c12.93-27.74,29.28-52.7,48.67-73.78l4.46-4.84h263.29
	l4.46,4.84c19.4,21.08,35.75,46.04,48.67,73.78C464.28,257.108,476.36,312.948,476.36,371.427z"/>
	<path style="fill:#FF738D;" d="M476.36,371.427c0,7.39-0.2,14.9-0.59,22.32l-0.76,14.2H256v-277.1h132.96l4.46,4.84
	c19.4,21.08,35.75,46.04,48.67,73.78C464.28,257.108,476.36,312.948,476.36,371.427z"/>
	<rect y="377.943" style="fill:#C9E7F8;" width="512" height="103.07"/>
	<rect x="256" y="377.943" style="fill:#B7DFF7;" width="256" height="103.07"/>
	<path style="fill:#FF0435;" d="M322.25,95.918c0,35.8-29.13,64.93-64.94,64.93c-0.44,0-0.88,0-1.31-0.02
	c-35.2-0.7-63.62-29.55-63.62-64.91c0-35.37,28.42-64.22,63.62-64.91c0.43-0.02,0.87-0.02,1.31-0.02
	C293.12,30.988,322.25,60.107,322.25,95.918z"/>
	<path style="fill:#C1001B;" d="M322.25,95.918c0,35.8-29.13,64.93-64.94,64.93c-0.44,0-0.88,0-1.31-0.02V31.007
	c0.43-0.02,0.87-0.02,1.31-0.02C293.12,30.988,322.25,60.107,322.25,95.918z"/>
	<path
		style="fill:#BF6100;"
		d="M442.09,209.467h-46.06c-11.3,0-20.48,9.19-20.48,20.48v69.37c0,27.83-22.65,50.48-50.49,50.48
	c-27.83,0-50.48-22.65-50.48-50.48v-71.27c0-10.25-8.33-18.58-18.58-18.58s-18.58,8.33-18.58,18.58v26.21
	c0,27.84-22.65,50.49-50.48,50.49c-27.84,0-50.49-22.65-50.49-50.49v-24.31c0-11.29-9.18-20.48-20.48-20.48H72.54
	c12.93-27.74,29.28-52.7,48.67-73.78l4.46-4.84h263.29l4.46,4.84C412.82,156.768,429.17,181.728,442.09,209.467z"/>
	<path
		style="fill:#994C00;"
		d="M256,209.467v-78.62h132.96l4.46,4.84c19.4,21.08,35.75,46.04,48.67,73.78h-46.06
	c-11.3,0-20.48,9.19-20.48,20.48v69.37c0,27.83-22.65,50.48-50.49,50.48c-27.83,0-50.48-22.65-50.48-50.48v-71.27
	C274.58,217.798,266.25,209.467,256,209.467z"/>
	<g></g>
	<g></g>
	<g></g>
	<g></g>
	<g></g>
	<g></g>
	<g></g>
	<g></g>
	<g></g>
	<g></g>
	<g></g>
	<g></g>
	<g></g>
	<g></g>
	<g></g>
</svg>
