<?xml version="1.0" encoding="iso-8859-1"?>
<!-- Generator: Adobe Illustrator 19.0.0, SVG Export Plug-In . SVG Version: 6.00 Build 0)  -->
<svg version="1.1" id="Capa_1" xmlns="http://www.w3.org/2000/svg" xmlns:xlink="http://www.w3.org/1999/xlink" x="0px" y="0px"
	 viewBox="0 0 512 512" style="enable-background:new 0 0 512 512;" xml:space="preserve">
<path style="fill:#F4911E;" d="M256,419.484c-9.392,0-18.633-0.639-27.688-1.859V502h70.001v-86.898
	C284.659,417.967,270.507,419.484,256,419.484z"/>
<path style="fill:#ECECEC;" d="M238.363,148.303c5.729-1.596,11.76-2.466,17.997-2.466c8.649,0,16.906,1.657,24.497,4.642
	C322.512,86.288,392.257,99.53,436,116.688c-20.844-38.084-53.455-68.82-92.947-87.348
	C297.63,41.447,233.957,72.072,238.363,148.303z"/>
<path style="fill:#EC594F;" d="M436,116.688c-43.743-17.158-113.488-30.4-155.143,33.791c13.603,5.348,25.034,15.003,32.603,27.303
	c72.005-27.489,120.566,24.999,145.641,64.846c1.244-9.119,1.9-18.426,1.9-27.885C461,179.217,451.938,145.809,436,116.688z"/>
<path style="fill:#ECECEC;" d="M313.46,177.781c6.274,10.199,9.9,22.202,9.9,35.056c0,1.618-0.078,3.218-0.19,4.808
	c75.479,18.879,84.852,90.047,82.231,137.277c28.461-30.244,47.813-69.129,53.699-112.295
	C434.026,202.78,385.464,150.292,313.46,177.781z"/>
<g>
	<path style="fill:#EC594F;" d="M273.653,277.572c-5.519,1.47-11.312,2.265-17.293,2.265c-8.254,0-16.155-1.501-23.457-4.231
		c-37.892,67.994-98.862,71.375-139.015,64.453c26.369,33.975,63.199,59.441,105.674,71.565
		C236.026,393.49,283.215,354.758,273.653,277.572z"/>
	<path style="fill:#EC594F;" d="M323.169,217.645c-1.034,14.566-6.714,27.843-15.581,38.355
		c52.691,55.838,38.37,114.399,20.07,150.615c29.82-11.115,56.35-28.961,77.742-51.693
		C408.021,307.691,398.648,236.523,323.169,217.645z"/>
</g>
<g>
	<path style="fill:#ECECEC;" d="M232.903,275.605c-13.177-4.926-24.391-13.875-32.135-25.362
		c-70.503,32.034-121.466-1.127-149.704-30.399c1.108,45.24,16.916,86.832,42.824,120.215
		C134.041,346.98,195.011,343.6,232.903,275.605z"/>
	<path style="fill:#ECECEC;" d="M189.394,211.486c0.284-14.313,5.045-27.524,12.956-38.287
		c-49.979-59.222-16.1-122.472,13.455-159.254C161.951,24.638,115.695,56.39,86.017,100.26
		C92.067,140.293,114.24,196.455,189.394,211.486z"/>
</g>
<g>
	<path style="fill:#EC594F;" d="M202.351,173.199c8.764-11.922,21.379-20.824,36.012-24.896
		C233.957,72.072,297.63,41.447,343.053,29.34C316.628,16.941,287.128,10,256,10c-13.759,0-27.196,1.363-40.195,3.945
		C186.251,50.728,152.372,113.978,202.351,173.199z"/>
	<path style="fill:#EC594F;" d="M200.768,250.243c-7.202-10.683-11.408-23.553-11.408-37.406c0-0.453,0.025-0.899,0.034-1.351
		C114.24,196.455,92.067,140.293,86.017,100.26C63.909,132.938,51,172.334,51,214.742c0,1.705,0.023,3.406,0.064,5.102
		C79.302,249.116,130.265,282.277,200.768,250.243z"/>
</g>
<path style="fill:#ECECEC;" d="M307.588,256c-8.714,10.332-20.49,17.989-33.936,21.572c9.563,77.186-37.627,115.918-74.091,134.051
	c17.93,5.117,36.862,7.861,56.438,7.861c25.209,0,49.352-4.557,71.658-12.869C345.958,370.399,360.28,311.838,307.588,256z"/>
<circle style="fill:#EEEEEE;" cx="256.36" cy="212.84" r="67"/>
<path d="M408.024,62.893C367.416,22.335,313.426,0,255.999,0c-57.426,0-111.415,22.335-152.023,62.893
	C63.365,103.452,41,157.38,41,214.742c0,57.361,22.366,111.289,62.977,151.85c31.578,31.537,71.25,52.051,114.336,59.617V502
	c0,5.522,4.477,10,10,10h70c5.522,0,10-4.478,10-10v-78.883c37.419-9.301,71.74-28.59,99.712-56.525
	C448.635,326.031,471,272.103,471,214.742C471,157.38,448.635,103.452,408.024,62.893z M450.991,213.952
	c-17.749-21.856-41.894-42.763-72.691-50.604c-19.725-5.023-40.104-4.15-60.99,2.515c-5.885-7.618-13.153-14.111-21.439-19.086
	c10.094-12.638,22.066-21.811,35.889-27.416c32.243-13.074,69.416-5.02,97.116,5.361
	C442.882,151.443,450.862,181.788,450.991,213.952z M256.36,269.837c-31.43,0-57-25.57-57-57s25.57-57,57-57s57,25.57,57,57
	S287.79,269.837,256.36,269.837z M412.261,98.367c-27.112-6.981-58.699-9.402-87.942,2.429
	c-18.764,7.592-34.598,20.257-47.443,37.838c-6.537-1.81-13.411-2.797-20.516-2.797c-2.73,0-5.427,0.148-8.085,0.427
	c0.679-16.14,4.917-30.6,12.746-43.277c18.183-29.447,52.663-44.914,81.059-52.952C369.831,53.727,393.879,73.813,412.261,98.367z
	 M255.999,20c19.927,0,39.162,3.006,57.282,8.578c-25.914,10.4-52.697,27.094-69.236,53.83
	c-10.687,17.276-15.965,36.935-15.895,58.805c-9.456,3.736-17.998,9.289-25.197,16.233c-9.243-13.509-14.546-27.798-15.81-42.812
	c-2.935-34.875,16.03-68.17,34.262-91.566C232.637,21.054,244.197,20,255.999,20z M191.299,31.033
	c-14.859,23.904-26.73,53.539-24.091,85.197c1.715,20.565,9.37,39.789,22.826,57.558c-4.545,7.69-7.783,16.235-9.427,25.331
	c-21.024-5.796-38.42-15.646-52.002-29.557c-19.521-19.992-28.239-45.455-31.993-66.887
	C119.77,69.924,152.781,44.603,191.299,31.033z M61,214.742c0-31.438,7.507-61.154,20.811-87.47
	c5.822,19.021,15.723,39.046,32.362,56.136c17.118,17.582,39.031,29.641,65.499,36.16c0.794,9.121,3.182,17.791,6.889,25.729
	c-20.871,7.776-41.112,9.952-60.572,6.423c-27.585-5.002-49.493-20.794-64.979-36.135C61.009,215.303,61,215.023,61,214.742z
	 M99.476,330.756c-18.577-24.934-31.334-54.432-36.237-86.48c15.784,12.166,35.489,22.793,59.007,27.092
	c24.456,4.473,49.639,1.479,75.336-8.867c5.909,6.982,13.035,12.897,21.05,17.422c-12.268,18.853-27.39,32.742-45.304,41.49
	C148.1,333.734,121.054,333.963,99.476,330.756z M198.521,400.846c-30.598-9.443-58.002-26.221-80.143-48.27
	c1.224,0.027,43.402-3.303,63.567-13.115c22.417-10.908,40.971-28.311,55.572-51.965c6.032,1.523,12.343,2.341,18.842,2.341
	c2.811,0,5.584-0.161,8.316-0.456c1.246,22.449-2.745,42.585-12.021,60.227C239.57,374.494,217.844,390.682,198.521,400.846z
	 M288.312,492h-50v-63.242c5.853,0.473,11.751,0.727,17.688,0.727c10.918,0,21.711-0.813,32.313-2.398L288.312,492L288.312,492z
	 M320.395,398.559c-20.17,7.066-41.839,10.926-64.396,10.926c-9.968,0-19.762-0.756-29.331-2.203
	c16.361-11.41,32.436-27.037,43.606-48.209c11.604-21.994,16.298-46.926,14.14-74.55c8.399-3.3,16.081-8.027,22.746-13.894
	c14.211,17.217,22.906,35.672,25.927,55.254C337.323,353.336,329.725,378.98,320.395,398.559z M395.54,350.623
	c-14.212,14.553-30.677,26.895-48.83,36.463c6.236-18.77,9.747-40.67,6.171-64.078c-3.714-24.306-14.572-46.898-32.384-67.624
	c4.97-7.468,8.66-15.851,10.784-24.834c15.887,5.606,28.892,14.284,38.885,26.044C392.728,283.145,396.721,321.045,395.54,350.623z
	 M415.375,326.824c-1.832-28.035-9.415-58.955-29.917-83.119c-13.38-15.771-30.825-26.984-52.168-33.614
	c-0.329-9.308-2.311-18.197-5.671-26.386c15.804-4.345,31.062-4.7,45.682-0.99c33.904,8.602,59.185,37.372,75.351,62.232
	C443.935,275.068,432.28,302.922,415.375,326.824z"/>
<g>
</g>
<g>
</g>
<g>
</g>
<g>
</g>
<g>
</g>
<g>
</g>
<g>
</g>
<g>
</g>
<g>
</g>
<g>
</g>
<g>
</g>
<g>
</g>
<g>
</g>
<g>
</g>
<g>
</g>
</svg>
