<?xml version="1.0" encoding="iso-8859-1"?>
<!-- Generator: Adobe Illustrator 19.0.0, SVG Export Plug-In . SVG Version: 6.00 Build 0)  -->
<svg version="1.1" id="Capa_1" xmlns="http://www.w3.org/2000/svg" xmlns:xlink="http://www.w3.org/1999/xlink" x="0px" y="0px"
	 viewBox="0 0 512.001 512.001" style="enable-background:new 0 0 512.001 512.001;" xml:space="preserve">
<path style="fill:#32D736;" d="M112.072,511.575c-3.918,0-7.719-1.535-10.584-4.386l-97.105-97.09
	c-4.035-4.02-5.409-9.986-3.597-15.38s6.55-9.284,12.193-10.043l114.306-15.986c4.708-0.644,9.269,0.965,12.573,4.255
	c3.305,3.305,4.883,7.939,4.24,12.573l-17.2,113.076c-0.731,5.643-4.62,10.366-10.029,12.193
	C115.289,511.313,113.681,511.575,112.072,511.575z"/>
<path style="fill:#10BB67;" d="M101.488,507.19c2.865,2.85,6.667,4.386,10.584,4.386c1.608,0,3.217-0.263,4.796-0.789
	c5.409-1.827,9.298-6.55,10.029-12.193l17.2-113.076c0.644-4.635-0.936-9.269-4.24-12.573l-86.919,85.704L101.488,507.19z"/>
<path style="fill:#32D736;" d="M383.104,144.655c-3.947,0-7.749-1.564-10.584-4.386c-3.305-3.305-4.883-7.938-4.24-12.573
	l16.824-114.3c0.731-5.643,4.62-10.366,10.029-12.193c5.438-1.798,11.345-0.424,15.38,3.597l97.105,97.105
	c4.035,4.02,5.409,9.985,3.597,15.38c-1.812,5.394-6.55,9.284-12.193,10.043l-113.93,17.194
	C384.419,144.611,383.747,144.655,383.104,144.655z"/>
<path style="fill:#10BB67;" d="M383.104,144.655c0.644,0,1.315-0.044,1.988-0.132l113.93-17.194
	c5.643-0.761,10.38-4.649,12.193-10.043c1.813-5.394,0.438-11.36-3.597-15.38l-48.554-48.556l-86.545,86.919
	C375.355,143.09,379.156,144.655,383.104,144.655z"/>
<path style="fill:#FD003A;" d="M443.535,181.073c-3.595-11.078-9.581-21.559-17.966-29.942c-0.299-0.299-0.6-0.6-0.897-0.899
	l-63.476-63.476c-28.145-28.444-77.55-28.444-105.695,0L86.331,255.927c-4.49,4.49-8.682,9.581-11.676,14.971
	c-6.888,11.378-10.481,24.253-10.481,37.726c0,7.485,1.199,14.971,3.294,22.157c3.595,11.078,9.581,21.557,17.966,29.942
	c0.299,0.299,0.6,0.598,0.897,0.897l11.078,11.078l42.818,42.816l9.579,9.581c14.074,14.373,32.937,22.159,52.997,22.159
	c19.762,0,38.626-7.785,52.697-22.159l64.375-64.373l104.795-104.795c4.49-4.492,8.682-9.581,11.676-14.971
	c6.888-11.378,10.481-24.253,10.481-37.726C446.827,195.743,445.629,188.258,443.535,181.073z"/>
<path style="fill:#E50027;" d="M255.501,425.095l64.375-64.373l104.795-104.795c4.49-4.492,8.682-9.581,11.676-14.971
	c6.888-11.378,10.481-24.253,10.481-37.726c0-7.485-1.199-14.971-3.294-22.157c-3.595-11.078-9.581-21.559-17.966-29.942
	c-0.299-0.299-0.6-0.6-0.897-0.899l-31.058-31.058l-253.755,253.77l-21.1,21.1l21.469,21.469l9.579,9.581
	c14.074,14.373,32.937,22.159,52.997,22.159C222.566,447.253,241.43,439.468,255.501,425.095z"/>
<g>
	<path style="fill:#32D736;" d="M443.535,181.073H161.184l29.942-29.942h234.443C433.954,159.514,439.94,169.994,443.535,181.073z"
		/>
	<path style="fill:#32D736;" d="M436.347,240.956c-2.993,5.389-7.186,10.479-11.676,14.971L409.7,270.897H74.654
		c2.993-5.389,7.186-10.481,11.676-14.971l14.971-14.971H436.347z"/>
	<path style="fill:#32D736;" d="M349.818,330.78l-29.942,29.942H85.433c-8.385-8.385-14.371-18.863-17.966-29.942H349.818z"/>
</g>
<g>
	<polygon style="fill:#10BB67;" points="349.818,330.78 182.02,330.78 152.08,360.722 319.876,360.722 	"/>
	<path style="fill:#10BB67;" d="M409.701,270.897l14.971-14.971c4.49-4.492,8.682-9.581,11.676-14.971H271.839l-29.94,29.942
		H409.701z"/>
	<path style="fill:#10BB67;" d="M443.535,181.073c-3.595-11.078-9.581-21.559-17.966-29.942h-63.911l-29.94,29.942H443.535z"/>
</g>
<g>
</g>
<g>
</g>
<g>
</g>
<g>
</g>
<g>
</g>
<g>
</g>
<g>
</g>
<g>
</g>
<g>
</g>
<g>
</g>
<g>
</g>
<g>
</g>
<g>
</g>
<g>
</g>
<g>
</g>
</svg>
