<?xml version="1.0" encoding="iso-8859-1"?>
<!-- Generator: Adobe Illustrator 19.0.0, SVG Export Plug-In . SVG Version: 6.00 Build 0)  -->
<svg version="1.1" id="Capa_1" xmlns="http://www.w3.org/2000/svg" xmlns:xlink="http://www.w3.org/1999/xlink" x="0px" y="0px" viewBox="0 0 512 512" style="enable-background:new 0 0 512 512;" xml:space="preserve">
	<path
		style="fill:#FFB64F;"
		d="M437.02,74.98C388.67,26.63,324.38,0,256,0S123.33,26.63,74.98,74.98S0,187.62,0,256
	s26.63,132.67,74.98,181.02S187.62,512,256,512s132.67-26.63,181.02-74.98S512,324.38,512,256S485.37,123.33,437.02,74.98z M256,329
	c-40.32,0-73-32.68-73-73s32.68-73,73-73s73,32.68,73,73S296.32,329,256,329z"/>
	<path style="fill:#FF9900;" d="M512,256c0,68.38-26.63,132.67-74.98,181.02S324.38,512,256,512V329c40.32,0,73-32.68,73-73
	s-32.68-73-73-73V0c68.38,0,132.67,26.63,181.02,74.98S512,187.62,512,256z"/>
	<path
		style="fill:#994C00;"
		d="M444.85,244.2c13.13-25.64,4.79-56.77-19.4-72.41c-6.97-4.5-11.39-12.14-11.8-20.43
	c-1.45-28.78-24.23-51.56-53.01-53.01c-8.29-0.41-15.93-4.83-20.43-11.8c-10.65-16.47-28.48-25.59-46.87-25.59
	c-8.62,0-17.36,2-25.54,6.19c-3.7,1.89-7.75,2.84-11.8,2.84c-4.05,0-8.1-0.95-11.8-2.84c-25.64-13.13-56.77-4.79-72.41,19.4
	c-4.5,6.97-12.14,11.39-20.43,11.8c-28.78,1.45-51.56,24.23-53.01,53.01c-0.41,8.29-4.83,15.93-11.8,20.43
	c-24.19,15.64-32.53,46.77-19.4,72.41c3.79,7.39,3.79,16.21,0,23.6c-13.13,25.64-4.79,56.77,19.4,72.41
	c6.97,4.5,11.39,12.14,11.8,20.43c1.45,28.78,24.23,51.56,53.01,53.01c8.29,0.41,15.93,4.83,20.43,11.8
	c10.65,16.47,28.48,25.6,46.87,25.6c8.61-0.01,17.36-2.01,25.54-6.2c3.7-1.89,7.75-2.84,11.8-2.84s8.1,0.95,11.8,2.84
	c8.18,4.19,16.92,6.2,25.54,6.2c18.39,0,36.22-9.13,46.87-25.6c4.5-6.97,12.14-11.39,20.43-11.8c28.78-1.45,51.56-24.23,53.01-53.01
	c0.41-8.29,4.83-15.93,11.8-20.43c24.19-15.64,32.53-46.77,19.4-72.41C441.06,260.41,441.06,251.59,444.85,244.2z M256,329
	c-40.32,0-73-32.68-73-73s32.68-73,73-73s73,32.68,73,73S296.32,329,256,329z"/>
	<path
		style="fill:#703700;"
		d="M444.85,267.8c13.13,25.64,4.79,56.77-19.4,72.41c-6.97,4.5-11.39,12.14-11.8,20.43
	c-1.45,28.78-24.23,51.56-53.01,53.01c-8.29,0.41-15.93,4.83-20.43,11.8c-10.65,16.47-28.48,25.6-46.87,25.6
	c-8.62,0-17.36-2.01-25.54-6.2c-3.7-1.89-7.75-2.84-11.8-2.84V329c40.32,0,73-32.68,73-73s-32.68-73-73-73V69.99
	c4.05,0,8.1-0.95,11.8-2.84c8.18-4.19,16.92-6.19,25.54-6.19c18.39,0,36.22,9.12,46.87,25.59c4.5,6.97,12.14,11.39,20.43,11.8
	c28.78,1.45,51.56,24.23,53.01,53.01c0.41,8.29,4.83,15.93,11.8,20.43c24.19,15.64,32.53,46.77,19.4,72.41
	C441.06,251.59,441.06,260.41,444.85,267.8z"/>
	<rect x="327.67" y="146.5" style="fill:#FF738D;" width="30" height="30"/>
	<rect x="223.5" y="105.53" style="fill:#BF6100;" width="30" height="30"/>
	<rect x="144.5" y="176.5" style="fill:#FFA6B7;" width="30" height="30"/>
	<rect x="114.5" y="270" style="fill:#BF6100;" width="30" height="30"/>
	<rect x="193.5" y="371" style="fill:#FFA6B7;" width="30" height="30"/>
	<rect x="320" y="345" style="fill:#FF738D;" width="30" height="30"/>
	<rect x="366.55" y="241" style="fill:#994C00;" width="30" height="30"/>
	<g></g>
	<g></g>
	<g></g>
	<g></g>
	<g></g>
	<g></g>
	<g></g>
	<g></g>
	<g></g>
	<g></g>
	<g></g>
	<g></g>
	<g></g>
	<g></g>
	<g></g>
</svg>
