<?xml version="1.0" encoding="iso-8859-1"?>
<!-- Generator: Adobe Illustrator 19.0.0, SVG Export Plug-In . SVG Version: 6.00 Build 0)  -->
<svg version="1.1" id="Capa_1" xmlns="http://www.w3.org/2000/svg" xmlns:xlink="http://www.w3.org/1999/xlink" x="0px" y="0px" viewBox="0 0 512 512" style="enable-background:new 0 0 512 512;" xml:space="preserve">
	<polygon style="fill:#FFB64F;" points="388.475,271.92 358.585,512 153.425,512 123.535,271.92 "/>
	<polygon style="fill:#FF9900;" points="388.475,271.92 358.585,512 256.065,512 256.065,271.92 "/>
	<rect x="117.31" y="234.03" style="fill:#FFDAA8;" width="277.5" height="68.62"/>
	<rect x="256.06" y="234.03" style="fill:#FFC373;" width="138.75" height="68.62"/>
	<path
		style="fill:#FF738D;"
		d="M412.185,156.18c0,24.41-5.49,47.8-16.31,69.54l-4.14,8.31h-49.8c-0.6,22.75-19.29,41.07-42.19,41.07
	c-22.89,0-41.58-18.32-42.18-41.07h-137.3l-4.14-8.31c-10.82-21.73-16.31-45.13-16.31-69.54c0-86.06,70.02-156.12,156.08-156.18
	h0.17c41.68,0.02,80.85,16.24,110.34,45.71C395.925,75.21,412.185,114.45,412.185,156.18z"/>
	<path
		style="fill:#FF3B62;"
		d="M412.185,156.18c0,24.41-5.49,47.8-16.31,69.54l-4.14,8.31h-49.8c-0.6,22.75-19.29,41.07-42.19,41.07
	c-22.89,0-41.58-18.32-42.18-41.07h-1.5V0c41.68,0.02,80.85,16.24,110.34,45.71C395.925,75.21,412.185,114.45,412.185,156.18z"/>
	<g></g>
	<g></g>
	<g></g>
	<g></g>
	<g></g>
	<g></g>
	<g></g>
	<g></g>
	<g></g>
	<g></g>
	<g></g>
	<g></g>
	<g></g>
	<g></g>
	<g></g>
</svg>
