<?xml version="1.0" encoding="iso-8859-1"?>
<!-- Generator: Adobe Illustrator 19.0.0, SVG Export Plug-In . SVG Version: 6.00 Build 0)  -->
<svg version="1.1" id="Capa_1" xmlns="http://www.w3.org/2000/svg" xmlns:xlink="http://www.w3.org/1999/xlink" x="0px" y="0px" viewBox="0 0 512 512" style="enable-background:new 0 0 512 512;" xml:space="preserve">
	<path style="fill:#BF6100;" d="M273.114,58.481l0.005-0.191l-29.994-0.581c0.029-1.538,0.552-15.425,9.571-29.36
	C261.067,15.417,278.317,0,312.955,0v30c-16.471,0-28.074,4.637-34.489,13.782C273.522,50.831,273.117,58.406,273.114,58.481z"/>
	<path style="fill:#FF0435;" d="M313.76,110.24c0,31.85-25.91,57.76-57.76,57.76s-57.76-25.91-57.76-57.76S224.15,52.47,256,52.47
	S313.76,78.39,313.76,110.24z"/>
	<path style="fill:#C1001B;" d="M256,168V52.47c31.85,0,57.76,25.92,57.76,57.77S287.85,168,256,168z"/>
	<polygon style="fill:#C9E7F8;" points="422.54,149.14 417.16,223.86 407.25,361.6 396.42,512 115.58,512 104.75,361.6 94.84,223.86
	89.46,149.14 "/>
	<polygon style="fill:#B7DFF7;" points="422.54,149.14 417.16,223.86 407.25,361.6 396.42,512 256,512 256,149.14 "/>
	<polygon style="fill:#FFDAA8;" points="412.32,291.1 407.25,361.6 396.42,512 115.58,512 104.75,361.6 99.68,291.1 "/>
	<polygon style="fill:#FFC373;" points="412.32,291.1 407.25,361.6 396.42,512 256,512 256,291.1 "/>
	<polygon style="fill:#FF738D;" points="417.16,223.86 407.25,361.6 104.75,361.6 94.84,223.86 "/>
	<polygon style="fill:#FF3B62;" points="417.16,223.86 407.25,361.6 256,361.6 256,223.86 "/>
	<g>
		<rect x="151.87" y="280.65" style="fill:#FF9900;" width="30.25" height="30.25"/>
		<rect x="212.87" y="280.65" style="fill:#FF9900;" width="30.25" height="30.25"/>
	</g>
	<g>
		<rect x="273.87" y="280.65" style="fill:#FF8800;" width="30.25" height="30.25"/>
		<rect x="334.87" y="280.65" style="fill:#FF8800;" width="30.25" height="30.25"/>
	</g>
	<g></g>
	<g></g>
	<g></g>
	<g></g>
	<g></g>
	<g></g>
	<g></g>
	<g></g>
	<g></g>
	<g></g>
	<g></g>
	<g></g>
	<g></g>
	<g></g>
	<g></g>
</svg>
