<?xml version="1.0" encoding="iso-8859-1"?>
<!-- Generator: Adobe Illustrator 19.0.0, SVG Export Plug-In . SVG Version: 6.00 Build 0)  -->
<svg version="1.1" id="Capa_1" xmlns="http://www.w3.org/2000/svg" xmlns:xlink="http://www.w3.org/1999/xlink" x="0px" y="0px" viewBox="0 0 512 512" style="enable-background:new 0 0 512 512;" xml:space="preserve">
	<rect x="56.854" y="179.83" style="fill:#FFDAA8;" width="398.29" height="256.94"/>
	<rect x="255.998" y="179.83" style="fill:#FFC373;" width="199.14" height="256.94"/>
	<rect x="56.854" y="318.33" style="fill:#FF738D;" width="398.29" height="118.44"/>
	<rect x="255.998" y="318.33" style="fill:#FF3B62;" width="199.14" height="118.44"/>
	<path style="fill:#FF0435;" d="M179.388,52.514c0,28.952-23.553,52.505-52.505,52.505S74.378,81.466,74.378,52.514
	C74.378,23.562,97.93,0,126.883,0C155.835,0,179.388,23.562,179.388,52.514z"/>
	<path style="fill:#C1001B;" d="M126.883,105.019V0c28.953,0,52.505,23.562,52.505,52.514S155.835,105.019,126.883,105.019z"/>
	<path style="fill:#FF0435;" d="M308.503,52.514c0,28.952-23.553,52.505-52.505,52.505s-52.505-23.553-52.505-52.505
	S227.046,0,255.998,0S308.503,23.562,308.503,52.514z"/>
	<path style="fill:#C1001B;" d="M255.998,105.019V0c28.952,0,52.505,23.562,52.505,52.514S284.95,105.019,255.998,105.019z"/>
	<path style="fill:#FF0435;" d="M437.618,52.514c0,28.952-23.553,52.505-52.505,52.505s-52.505-23.553-52.505-52.505
	S356.161,0,385.113,0S437.618,23.562,437.618,52.514z"/>
	<path style="fill:#C1001B;" d="M385.113,105.019V0c28.952,0,52.505,23.562,52.505,52.514S414.066,105.019,385.113,105.019z"/>
	<path style="fill:#BF6100;" d="M491.58,152.058c0,31.836-25.896,57.723-57.723,57.723H78.139c-31.826,0-57.723-25.886-57.723-57.723
	c0-31.826,25.896-57.713,57.723-57.713h355.719C465.684,94.345,491.58,120.232,491.58,152.058z"/>
	<rect x="0.43" y="406.82" style="fill:#C9E7F8;" width="511.14" height="105.18"/>
	<g>
		<rect x="119.108" y="262.38" style="fill:#994C00;" width="30.2" height="30.2"/>
		<rect x="179.998" y="262.38" style="fill:#994C00;" width="30.2" height="30.2"/>
		<rect x="240.908" y="262.38" style="fill:#994C00;" width="30.19" height="30.2"/>
		<rect x="301.798" y="262.38" style="fill:#994C00;" width="30.19" height="30.2"/>
		<rect x="362.698" y="262.38" style="fill:#994C00;" width="30.19" height="30.2"/>
	</g>
	<g>
		<rect x="255.998" y="262.38" style="fill:#703700;" width="15.09" height="30.2"/>
		<rect x="301.798" y="262.38" style="fill:#703700;" width="30.19" height="30.2"/>
		<rect x="362.698" y="262.38" style="fill:#703700;" width="30.19" height="30.2"/>
	</g>
	<rect x="255.998" y="406.82" style="fill:#B7DFF7;" width="255.57" height="105.18"/>
	<path style="fill:#994C00;" d="M491.58,152.058c0,31.836-25.896,57.723-57.723,57.723H255.998V94.345h177.859
	C465.684,94.345,491.58,120.232,491.58,152.058z"/>
	<g></g>
	<g></g>
	<g></g>
	<g></g>
	<g></g>
	<g></g>
	<g></g>
	<g></g>
	<g></g>
	<g></g>
	<g></g>
	<g></g>
	<g></g>
	<g></g>
	<g></g>
</svg>
