<?xml version="1.0" encoding="iso-8859-1"?>
<!-- Generator: Adobe Illustrator 19.0.0, SVG Export Plug-In . SVG Version: 6.00 Build 0)  -->
<svg version="1.1" id="Capa_1" xmlns="http://www.w3.org/2000/svg" xmlns:xlink="http://www.w3.org/1999/xlink" x="0px" y="0px" viewBox="0 0 512 512" style="enable-background:new 0 0 512 512;" xml:space="preserve">
	<path style="fill:#BF6100;" d="M356.23,100.23c0,55.36-44.87,100.23-100.23,100.23s-100.23-44.87-100.23-100.23S200.64,0,256,0
	S356.23,44.87,356.23,100.23z"/>
	<path style="fill:#994C00;" d="M356.23,100.23c0,55.36-44.87,100.23-100.23,100.23V0C311.36,0,356.23,44.87,356.23,100.23z"/>
	<path style="fill:#77DE00;" d="M276.61,190.83c0,55.36-44.88,100.24-100.23,100.24c-55.36,0-100.23-44.88-100.23-100.24
	c0-55.35,44.87-100.23,100.23-100.23C231.73,90.6,276.61,135.48,276.61,190.83z"/>
	<path
		style="fill:#FF738D;"
		d="M435.85,190.83c0,55.36-44.87,100.24-100.23,100.24c-0.17,0-0.33,0-0.5-0.01
	c-55.12-0.26-99.73-45.04-99.73-100.23c0-55.18,44.61-99.96,99.73-100.22c0.17-0.01,0.33-0.01,0.5-0.01
	C390.98,90.6,435.85,135.48,435.85,190.83z"/>
	<path style="fill:#2EBC00;" d="M276.61,190.83c0,55.36-44.88,100.24-100.23,100.24V90.6C231.73,90.6,276.61,135.48,276.61,190.83z"/>
	<path style="fill:#FF3B62;" d="M435.85,190.83c0,55.36-44.87,100.24-100.23,100.24c-0.17,0-0.33,0-0.5-0.01V90.61
	c0.17-0.01,0.33-0.01,0.5-0.01C390.98,90.6,435.85,135.48,435.85,190.83z"/>
	<path style="fill:#C9E7F8;" d="M452.79,212.46v15c0,100.54-81.43,182.4-181.79,183.14V482h38.63v30H202.37v-30H241v-71.4
	C140.63,409.86,59.21,328,59.21,227.46v-15H452.79z"/>
	<path style="fill:#B7DFF7;" d="M452.79,212.46v15c0,100.54-81.43,182.4-181.79,183.14V482h38.63v30H256V212.46H452.79z"/>
	<g></g>
	<g></g>
	<g></g>
	<g></g>
	<g></g>
	<g></g>
	<g></g>
	<g></g>
	<g></g>
	<g></g>
	<g></g>
	<g></g>
	<g></g>
	<g></g>
	<g></g>
</svg>
