<?xml version="1.0" encoding="iso-8859-1"?>
<!-- Generator: Adobe Illustrator 19.0.0, SVG Export Plug-In . SVG Version: 6.00 Build 0)  -->
<svg version="1.1" id="Capa_1" xmlns="http://www.w3.org/2000/svg" xmlns:xlink="http://www.w3.org/1999/xlink" x="0px" y="0px" viewBox="0 0 512 512" style="enable-background:new 0 0 512 512;" xml:space="preserve">
	<rect y="208.182" style="fill:#FF738D;" width="512" height="219"/>
	<rect x="256" y="208.182" style="fill:#FF3B62;" width="256" height="219"/>
	<path style="fill:#BF6100;" d="M76.249,142.465c-0.126-1.475-2.661-36.352,34.742-57.647l14.844,26.07
	c-20.573,11.714-19.71,28.849-19.695,29.019L76.249,142.465z"/>
	<path style="fill:#FF0435;" d="M139.7,174.686c0,26.74-21.75,48.5-48.5,48.5c-26.74,0-48.5-21.76-48.5-48.5
	c0-26.74,21.76-48.5,48.5-48.5C117.95,126.186,139.7,147.946,139.7,174.686z"/>
	<path style="fill:#C1001B;" d="M139.7,174.686c0,26.74-21.75,48.5-48.5,48.5v-97C117.95,126.186,139.7,147.946,139.7,174.686z"/>
	<path style="fill:#BF6100;" d="M241.049,142.465c-0.126-1.475-2.661-36.352,34.742-57.647l14.844,26.07
	c-20.573,11.714-19.71,28.849-19.695,29.019L241.049,142.465z"/>
	<path style="fill:#FF0435;" d="M304.5,174.686c0,26.74-21.75,48.5-48.5,48.5c-26.74,0-48.5-21.76-48.5-48.5
	c0-26.74,21.76-48.5,48.5-48.5C282.75,126.186,304.5,147.946,304.5,174.686z"/>
	<path style="fill:#C1001B;" d="M304.5,174.686c0,26.74-21.75,48.5-48.5,48.5v-97C282.75,126.186,304.5,147.946,304.5,174.686z"/>
	<path style="fill:#BF6100;" d="M405.849,142.465c-0.126-1.475-2.661-36.352,34.742-57.647l14.844,26.07
	c-20.573,11.714-19.71,28.849-19.695,29.019L405.849,142.465z"/>
	<path style="fill:#FF0435;" d="M469.3,174.686c0,26.74-21.75,48.5-48.5,48.5c-26.74,0-48.5-21.76-48.5-48.5
	c0-26.74,21.76-48.5,48.5-48.5C447.55,126.186,469.3,147.946,469.3,174.686z"/>
	<path style="fill:#C1001B;" d="M469.3,174.686c0,26.74-21.75,48.5-48.5,48.5v-97C447.55,126.186,469.3,147.946,469.3,174.686z"/>
	<rect y="208.182" style="fill:#FFDAA8;" width="512" height="95.47"/>
	<g>
		<rect x="57.875" y="344.142" style="fill:#994C00;" width="30.25" height="30.25"/>
		<rect x="118.87" y="344.142" style="fill:#994C00;" width="30.25" height="30.25"/>
		<rect x="179.87" y="344.142" style="fill:#994C00;" width="30.25" height="30.25"/>
		<rect x="240.88" y="344.142" style="fill:#994C00;" width="30.24" height="30.25"/>
		<rect x="301.88" y="344.142" style="fill:#994C00;" width="30.24" height="30.25"/>
		<rect x="362.88" y="344.142" style="fill:#994C00;" width="30.24" height="30.25"/>
		<rect x="423.88" y="344.142" style="fill:#994C00;" width="30.24" height="30.25"/>
	</g>
	<g>
		<rect x="256" y="344.142" style="fill:#703700;" width="15.12" height="30.25"/>
		<rect x="301.88" y="344.142" style="fill:#703700;" width="30.24" height="30.25"/>
		<rect x="362.88" y="344.142" style="fill:#703700;" width="30.24" height="30.25"/>
		<rect x="423.88" y="344.142" style="fill:#703700;" width="30.24" height="30.25"/>
	</g>
	<rect x="256" y="208.182" style="fill:#FFC373;" width="256" height="95.47"/>
	<g></g>
	<g></g>
	<g></g>
	<g></g>
	<g></g>
	<g></g>
	<g></g>
	<g></g>
	<g></g>
	<g></g>
	<g></g>
	<g></g>
	<g></g>
	<g></g>
	<g></g>
</svg>
